<svg xmlns="http://www.w3.org/2000/svg" viewBox="0 0 313.85 228.48"><defs><style>.cls-1{fill:#374354;}.cls-2{fill:#ed4a6e;}</style></defs><title>dhruvi-creations-logo</title><g id="Layer_2" data-name="Layer 2"><g id="Layer_1-2" data-name="Layer 1"><path class="cls-1" d="M115.31,117a6.38,6.38,0,0,0-.52-1.37,4.13,4.13,0,0,0-.87-1.08,3.87,3.87,0,0,0-1.24-.71,5,5,0,0,0-1.64-.25,4.87,4.87,0,0,0-2.36.55,4.53,4.53,0,0,0-1.62,1.48,6.66,6.66,0,0,0-.93,2.1,9.75,9.75,0,0,0,0,4.8,6.66,6.66,0,0,0,.93,2.1,4.53,4.53,0,0,0,1.62,1.48,4.87,4.87,0,0,0,2.36.55,4.35,4.35,0,0,0,1.78-.35,3.94,3.94,0,0,0,1.32-1,4.66,4.66,0,0,0,.86-1.43,7,7,0,0,0,.41-1.75h2.93a8.45,8.45,0,0,1-.66,2.81,6.85,6.85,0,0,1-1.53,2.19,6.6,6.6,0,0,1-2.25,1.43,7.78,7.78,0,0,1-2.86.51,8.07,8.07,0,0,1-3.44-.71,7.54,7.54,0,0,1-2.58-1.93,8.47,8.47,0,0,1-1.62-2.86,10.85,10.85,0,0,1,0-6.94,8.43,8.43,0,0,1,1.62-2.85,7.6,7.6,0,0,1,2.58-2,7.93,7.93,0,0,1,3.44-.72,9.2,9.2,0,0,1,2.71.4,7,7,0,0,1,2.25,1.15,6.18,6.18,0,0,1,1.57,1.84,6.26,6.26,0,0,1,.74,2.47Z"/><path class="cls-1" d="M127.31,111.5h8.19a6.31,6.31,0,0,1,4.24,1.23,4.23,4.23,0,0,1,1.42,3.4,5,5,0,0,1-.36,2,4.42,4.42,0,0,1-.84,1.3,3.4,3.4,0,0,1-1,.71,6.25,6.25,0,0,1-.68.28v0a3,3,0,0,1,.83.24,2.44,2.44,0,0,1,.82.61,3.33,3.33,0,0,1,.64,1.1,4.72,4.72,0,0,1,.25,1.68,15.32,15.32,0,0,0,.23,2.74,3.59,3.59,0,0,0,.71,1.77h-3.22a2.87,2.87,0,0,1-.39-1.23c0-.44-.06-.88-.06-1.29a11.86,11.86,0,0,0-.15-2,3.42,3.42,0,0,0-.53-1.42,2.18,2.18,0,0,0-1-.82,4.5,4.5,0,0,0-1.69-.27h-4.42v7.06h-3Zm3,7.8h4.92a3.17,3.17,0,0,0,2.19-.68,2.68,2.68,0,0,0,.74-2.05,3.21,3.21,0,0,0-.24-1.34,1.94,1.94,0,0,0-.66-.8,2.39,2.39,0,0,0-1-.38,5.83,5.83,0,0,0-1.12-.1h-4.87Z"/><path class="cls-1" d="M150.45,111.5h12.33v2.59h-9.33v4.49h8.64V121h-8.64v5H163v2.59h-12.5Z"/><path class="cls-1" d="M176.39,111.5h3.19l6.6,17.14H183l-1.61-4.54h-6.84l-1.61,4.54h-3.09Zm-1,10.32h5.23L178,114.45h-.07Z"/><path class="cls-1" d="M190.22,111.5h13.87v2.59h-5.45v14.55h-3V114.09h-5.42Z"/><path class="cls-1" d="M212.32,111.5h3v17.14h-3Z"/><path class="cls-1" d="M232.53,111.09a7.93,7.93,0,0,1,3.44.72,7.6,7.6,0,0,1,2.58,2,8.43,8.43,0,0,1,1.62,2.85,10.85,10.85,0,0,1,0,6.94,8.47,8.47,0,0,1-1.62,2.86,7.54,7.54,0,0,1-2.58,1.93,8.71,8.71,0,0,1-6.89,0,7.74,7.74,0,0,1-2.58-1.93,8.83,8.83,0,0,1-1.62-2.86,11,11,0,0,1,0-6.94,8.78,8.78,0,0,1,1.62-2.85,7.8,7.8,0,0,1,2.58-2A8,8,0,0,1,232.53,111.09Zm0,2.45a4.94,4.94,0,0,0-2.37.55,4.7,4.7,0,0,0-1.62,1.48,6.87,6.87,0,0,0-.92,2.1,9.75,9.75,0,0,0,0,4.8,6.87,6.87,0,0,0,.92,2.1,4.7,4.7,0,0,0,1.62,1.48,4.94,4.94,0,0,0,2.37.55,4.87,4.87,0,0,0,2.36-.55,4.53,4.53,0,0,0,1.62-1.48,6.66,6.66,0,0,0,.93-2.1,9.75,9.75,0,0,0,0-4.8,6.66,6.66,0,0,0-.93-2.1,4.53,4.53,0,0,0-1.62-1.48A4.87,4.87,0,0,0,232.53,113.54Z"/><path class="cls-1" d="M249.59,111.5h3.17l7.82,12.63h.05V111.5h2.86v17.14h-3.17l-7.8-12.6h-.07v12.6h-2.86Z"/><path class="cls-1" d="M275.25,122.93a3.93,3.93,0,0,0,.33,1.68,3.17,3.17,0,0,0,.94,1.14,4,4,0,0,0,1.38.64,6.47,6.47,0,0,0,1.69.21,5.45,5.45,0,0,0,1.68-.23,3.43,3.43,0,0,0,1.13-.59A2,2,0,0,0,283,125a2.39,2.39,0,0,0,.19-.94,2.06,2.06,0,0,0-.44-1.46,2.62,2.62,0,0,0-1-.66,21.6,21.6,0,0,0-2.13-.63c-.8-.2-1.8-.46-3-.78a6.41,6.41,0,0,1-1.84-.76,4.23,4.23,0,0,1-1.16-1,3.63,3.63,0,0,1-.61-1.23,4.89,4.89,0,0,1-.18-1.32,4.45,4.45,0,0,1,.54-2.24,4.65,4.65,0,0,1,1.42-1.57,6.33,6.33,0,0,1,2-.93,8.81,8.81,0,0,1,2.28-.3,9,9,0,0,1,2.53.35,6.14,6.14,0,0,1,2.09,1,5,5,0,0,1,1.43,1.71,5.11,5.11,0,0,1,.52,2.37h-3a2.87,2.87,0,0,0-1.12-2.34,4.45,4.45,0,0,0-2.57-.69,5.82,5.82,0,0,0-1.08.11,3.28,3.28,0,0,0-1,.36,2.23,2.23,0,0,0-.75.68,1.86,1.86,0,0,0-.3,1.08,1.82,1.82,0,0,0,.56,1.43,3.54,3.54,0,0,0,1.48.78l.75.21,1.48.39,1.59.42,1.12.3a5.1,5.1,0,0,1,1.46.72,4.55,4.55,0,0,1,1.05,1,4.11,4.11,0,0,1,.62,1.26,4.4,4.4,0,0,1,.2,1.34,4.87,4.87,0,0,1-.58,2.46,5.07,5.07,0,0,1-1.55,1.67,6.81,6.81,0,0,1-2.18,1,10.49,10.49,0,0,1-2.5.3,10.23,10.23,0,0,1-2.76-.36,6.45,6.45,0,0,1-2.26-1.11,5.27,5.27,0,0,1-1.53-1.91,6.15,6.15,0,0,1-.6-2.74Z"/><path class="cls-2" d="M289.86,223.1s35.66-71.81-22.6-87.8c-78.3-21.5-165.34,77.3-225.49,8.27,0,0-11.14-13.83-13.13-31.7,0,0,17.89,61.45,68.29,45,0,0-29.49-10.42-35.81-46.16,0,0-28.47-17.14-48.69-14,0,0-9,63.61,28.5,104.46,0,0,45.95,49.87,131.08,14.66,0,0,62.91-25.1,83.05-21.5-21.44-43.21-144.37,28-165.25-6.15,32.75,24.59,125.43-32.47,164.33-15.2C254.14,173.05,286.1,183.1,289.86,223.1Z"/><path class="cls-1" d="M0,35.59a9.89,9.89,0,0,1,5.37-6.42c1-.46,2-1,3-1.38,2.16-.78,4.36-1.42,6.51-2.2a57.7,57.7,0,0,0,8.16-3.52,8.83,8.83,0,0,0,3.56-2.95,12.74,12.74,0,0,1,2.08-2.45,11.33,11.33,0,0,1,6.44-3.26c.28,0,.38-.15.4-.44a12.7,12.7,0,0,1,1.66-5.31,8.5,8.5,0,0,0,.9-2.19,3.72,3.72,0,0,0-1.44-4.11,4,4,0,0,0-5.18.74,7.72,7.72,0,0,0-1.67,3.06,2.38,2.38,0,0,1-1.5,1.53c-.25.11-.49.18-.59-.1a.59.59,0,0,1,.31-.46,1.94,1.94,0,0,0,1.23-1.39,7.55,7.55,0,0,1,.33-.83A6.65,6.65,0,0,1,32.07.77,4.46,4.46,0,0,1,36.63.5,4.11,4.11,0,0,1,39,4.25,7.78,7.78,0,0,1,37.86,8a19.9,19.9,0,0,0-1.1,2.51c-.29.88-.43,1.81-.64,2.76l.5.05a17.42,17.42,0,0,1,2.61.49,13.38,13.38,0,0,1,6.88,5.43,5.72,5.72,0,0,0,1.34,1.47,30.17,30.17,0,0,0,3.46,2,70.22,70.22,0,0,0,8.5,3.43c2,.69,4,1.34,6,2.05a14.1,14.1,0,0,1,1.77.91,1,1,0,0,1,.18.05,11.61,11.61,0,0,1,3.49,2.86,8,8,0,0,1,1.74,3.48c.1.49,0,.64-.49.67a2.93,2.93,0,0,1-.89-.06c-1.3-.37-2.59-.78-3.89-1.16a4.73,4.73,0,0,0-1.18-.22c-1.24,0-53.22,0-59.59,0H6.36a3.49,3.49,0,0,0-.91.17c-1,.31-1.94.69-2.93,1a9.12,9.12,0,0,1-2,.29C0,36.23-.07,36,0,35.59ZM63,33.43l.21-.22a1,1,0,0,1-.31-.08c-2-.93-4.1-1.83-6.12-2.81-2.71-1.31-5.39-2.67-8.08-4-1.78-.9-3.61-1.73-5.29-2.79a12.59,12.59,0,0,0-7.13-1.88,14,14,0,0,0-7,1.91c-2.94,1.73-6,3.19-9.1,4.71-2.9,1.45-5.83,2.83-8.76,4.22-.61.29-1.26.5-1.9.75,0,0,0,.1-.18.22Z"/><path class="cls-2" d="M7.65,45.37c-.3,2.58-1.19,5.27-.79,7.73,1.39,8.47,2.74,17,5.05,25.24,1.16,4.19.71,11.71.71,11.71s13.94-.89,24.73,2.7c6.17,2.06,23.48,10,23.48,10S55.34,91.05,58.38,81A92.57,92.57,0,0,0,66,52a16.28,16.28,0,0,0-.44-3.56l-2.73-3.28c-6.49-3.45-12.5-1.65-18.17,1.92-3,1.89-5.66,4.31-8.43,6.46a102,102,0,0,0-8-7.27c-5.75-4.29-12-6.35-19-2.84Z"/><path class="cls-1" d="M82.5,77.7h1.28l.22-.6-.54-.6-1,.2V71.5c0-.2.1-.4.32-.4s.75.1,1-.3l-1.07-.5a39.83,39.83,0,0,1-.21-5c0-3.1-.54-24.7,2.14-26.2h3.64c1.5,1,6.21.2,6.21,2.6,0,4.7-1.07,9.3-1.07,13.9a4.55,4.55,0,0,0,.43,1.1l.64-.6c4-8.2,6.86-13,15.85-17h3.43c4.28,2.7,7.28,2.8,9.21,8,.64,1.8,1.18,4.7,2.36,6.2v6.8l-.22.4c-1.82,19.3-14.56,39.8-37.7,39.8H85.07C84,99.5,81,97.21,81,95.9V87.1C81,84.3,82.18,80.6,82.5,77.7Zm.21-.4H82.5v-.2Zm.64,5.4L84,82l-.65-.5-.64.5Zm.11,5.8L84,88l-.75-.5-.54.4Zm-.64-2.9c.32,0,1.18-.1,1.18-.6l-.54-.3C82.82,84.7,82.82,85.1,82.82,85.6Zm0,8.8c.64,0,1.07-.1,1.07-.8C83.25,93.6,82.82,93.7,82.82,94.4Zm.64-2.7.54-.6-.43-.6-.65.6Zm.11,5.8.43-.6-.54-.6-.54.5Zm.21-29.1v-.7H83C83,68.2,83.25,68.4,83.78,68.4Zm-.21-3.1L84,65l-.43-.3-.43.3Zm-.22,9,.43-.4-.32-.2-.32.2Zm.32-11.8.43-.7-.75.4Zm1.18,4.6.86-.7L85,65.9l-.75.6Zm0,12,.86-.5-1-.7-.54.5Zm-.1,16.8.32-.4-.75-.29Zm.32-50,.64-.6-.64-.4-.65.6Zm.1,3,.54-.6L85,47.9l-.54.5Zm-.21,6,.75-.5L85,53.9l-.54.4Zm0,3.2.75-.8-.64-.6-.65.6Zm0,3,.75-.7-.86-.7-.43.6Zm0,3,.75-.8L85,62.9l-.54.5Zm0,6,.54-.6L85,68.9l-.54.6Zm-.54,5.4.22.4h1.07l.21-.4v-.1l-.75-.5-.75.5Zm.65,11.6.64-.7-.64-.5-.65.6Zm-.54-44.5V43H85c.43,0,.75-.2.75-.6l-.54-.5A.63.63,0,0,0,84.53,42.6Zm.11,8.7h.21v-.2h-.21Zm0,38.4h.21l-.21-.2ZM85,92.5c-.11,0-.21.1-.32.2h.11c.1,0,.21-.1.32-.2Zm0-20.3s-.11,0-.11.1.11.1.11.1.11,0,.11-.1S85,72.2,85,72.2Zm-.11,9.1c.22-.1.22-.2.22-.4h-.22Zm1.72-37,.43-.6-.54-.4-.54.4Zm-.65,20.6.43.4.65-.6-.54-.4-.54.5Zm.54,17.6.54-.4-.65-.6-.43.5Zm0,9.2.54-.5-.54-.5-.54.6ZM86,53.1v.3c.43,0,1.39-.1,1.39-.6l-.75-.5C86.14,52.3,86,52.6,86,53.1Zm.54,6.2.21-.4L86,58.6C86,58.9,86.25,59.3,86.57,59.3Zm0,11.8.21-.3c0-.3-.53-.4-.75-.4C86,70.7,86.14,71.1,86.57,71.1Zm0-29.8.21-.4-.21-.4-.43.3Zm0,5.8.43-.3-.43-.5-.43.5Zm0,3.2.43-.4-.43-.4-.43.3Zm0,6,.43-.4-.43-.4-.43.4Zm.1,6.2.75-.6-.75-.4-.53.5Zm-.1,6,.43-.6-.43-.4-.43.4Zm.21,6,.64-.6-.75-.4-.53.4Zm0,3L87,77l-.43-.5-.43.4Zm-.32,10.8.32-.4-.32-.2-.32.3Zm-.11-8.4c.22-.1.22-.2.22-.4h-.22Zm0,5.3v.1c.11-.1.22-.2.22-.3v-.1C86.46,85,86.35,85.1,86.35,85.2Zm1.72-39.5.42-.4-.42-.4-.43.4Zm.1,9,.54-.4-.64-.4-.43.3Zm.11,9.4.43-.6-.64-.6-.43.7Zm-.21,11.8.42-.4L88,75.1l-.32.4Zm0,11.2.64-.4-.64-.6-.43.4ZM87.75,61l1-.6-.43-.5A1.14,1.14,0,0,0,87.75,61Zm.1-18.5h.64v-.4h-.64Zm.75,6.1-.43-.7-.32.3ZM88,51.4a.1.1,0,0,0,.11.1.1.1,0,1,0,0-.2A.1.1,0,0,0,88,51.4Zm.53,6.1v-.2h-.42C88.17,57.5,88.28,57.5,88.49,57.5Zm0,9.2v-.4h-.42A.44.44,0,0,0,88.49,66.7Zm-.42,5.8c.32,0,.42-.1.42-.4C88.17,72.1,88.07,72.2,88.07,72.5Zm1.5,10,.42-.4V82l-1.5-1.3-.42.5Zm-1.08,7.4v-.4c-.21,0-.32,0-.42.2C88.17,89.9,88.28,89.9,88.49,89.9Zm1.18-45.6.75-.5-.64-.3-.64.3Zm.11,3,.21-.4-.42-.4-.43.4A.58.58,0,0,0,89.78,47.3Zm.75,3.1v-.3c0-.5-.11-.8-.64-.8l-.75.5C89.14,50.3,90.1,50.4,90.53,50.4Zm-.64,3.1.53-.6-.64-.6-.64.6Zm.1,3.2.43-.7-.64-.7-.64.6Zm-.42,2.6h.1l.54-.4-.54-.4-.53.4Zm.1,6.2.75-.6-.75-.4-.53.5Zm0,3,.75-.7-.64-.5-.64.6Zm.22,2.8.32-.5c0-.6-.54-.6-1.07-.6C89.14,70.7,89.24,71.3,89.89,71.3Zm.75,16c0,2.3-1.07,4.6-1.07,7a3.85,3.85,0,0,0,1.49,3.2c17.78,0,23.14-30,23.14-42.9,0-3.4.43-11.1-5.25-11.1-12,0-18.21,33.1-18.74,41.4h-1l.43.6c.11-.1.43-.3.54-.2A4.24,4.24,0,0,1,90.64,87.3Zm-.86-25,.64-.4a1.29,1.29,0,0,0-1.18-.5C89.24,61.7,89.35,62.3,89.78,62.3Zm-.21,12.2.64-.5-.43-.5-.43.5Zm-.22,5.4h.22v-.4Zm.54-3.2a.54.54,0,0,0-.32.2h.1a.54.54,0,0,0,.32-.2Zm1.6-21.6.65-.6-.86-.6-.64.4Zm-.32,8.8.75-.5-1-.7-.32.6Zm-.43,2.7V67c.43-.1,1.4-.3,1.4-.8l-.65-.3C91,65.9,90.74,66.1,90.74,66.6Zm.65-20.5.53-.6-.43-.6-.64.6Zm.42,2.7c0-.3-.1-.7-.53-.7l-.43.3C90.85,48.8,91.49,48.8,91.81,48.8Zm-.53,8.7.21-.3-.32-.3-.32.3Zm.11,3.4.53-.4-.64-.6-.43.5Zm-.22,9,.54-.5-.43-.3-.43.4Zm.11-27.2v-.4h-.22Zm.21,9.2.43-.6-.53-.4-.33.4Zm1.29-7.6.64-.6-.64-.4-.43.4ZM93,62.5l.65-.6L93,61.3l-.64.7Zm-.43,2.6H93v-.6h-.43Zm.11-18.3a.11.11,0,1,0,.11-.1A.1.1,0,0,0,92.67,46.8Zm6.75,50.5.21-.2-.21-.2Zm6.42-2.8.22-.2.11-.7-1,.4Zm.11-2.8.54-.6-.65-.6-.42.5Zm1.39-1.6.43-.4-.53-.4h-.11l-.21.4Zm.22,2.8.21-.4-.43-.4a.44.44,0,0,0-.42.4Zm1.5-1.4.43-.4-.43-.6-.43.6Zm.21-6v-.6l-.43.3Zm0,2.8v-.4c-.21,0-.32,0-.43.2C109,88.3,109.06,88.3,109.27,88.3Zm1.29-1.2.43-.5-.43-.5-.64.5Zm-.11,2.8h.64l-.32-.6Zm1.82-7.2.64-.5-.75-.7-.53.5Zm-.11,2.8.54-.4-.54-.6-.53.6Zm.11,2.7v-.8l-.64.5Zm-.43-11.1.43.4.43-.5-.32-.5-.54.5Zm0,3.1c.43,0,.65-.2.65-.6C112.06,79.6,111.84,79.8,111.84,80.2Zm.43-39.3h.43c-.11-.1-.21-.2-.32-.2h-.11Zm1.5,35,.43-.6-.54-.4h-.1l-.43.4Zm.21,3,.43-.4-.64-.6-.64.5Zm0,4.9v-.6l-.64.3Zm.22-11v-.7h-.75C113.45,72.6,113.66,72.8,114.2,72.8ZM114,42.7a.71.71,0,0,0-.21-.4l-.21.2A.81.81,0,0,0,114,42.7Zm-.21,38.4H114l-.21-.2Zm1.61,1.6.75-.7L115,81.4Zm.1-11.2.43-.5-.43-.3-.42.3Zm-.21,2.4h.64a.55.55,0,0,0-.43-.2h-.21Zm.21,6.2v-.6l-.21.4Zm0-36h.22v-.2h-.22Zm1.61,17,.75-.6-.64-.6-.65.7ZM117,75.9l.43-.3-.43-.3-.43.2A.45.45,0,0,0,117,75.9Zm-.21-33.2.43.4.43-.5-.43-.5-.43.5Zm.53,21,.33-.4-.43-.4-.43.4Zm-.1,6.2.43-.5-.43-.3-.43.3Zm-.43,8.6.21-.2h-.21Zm1.82-25.2.54-.6-.43-.4-.43.6Zm.32,14.9v-.8l-.64.4Zm-.11-9.1h.11c-.11-.1-.21-.2-.32-.2h-.11C118.59,59,118.7,59.1,118.8,59.1Zm-.21,12.1,1-.4-.53-.5Zm1.71-19.5.54-.4-.54-.4-.32.4Zm-.1,6,.43-.5-.43-.3-.22.4Zm.1,11.8.33-.2A.79.79,0,0,0,120,69C120,69.2,120.09,69.5,120.3,69.5Zm.11-5.8v-.4l-.21.2Zm0,3,.22-.4-.22-.2c-.11.1-.21.2-.21.3S120.3,66.6,120.41,66.7Zm1.5-13.4.43-.4-.43-.4-.43.3Zm-.32,8.8h.53v-.6C121.7,61.5,121.59,61.8,121.59,62.1Z"/><path class="cls-1" d="M155.33,82.5c0-4.4.86-8.9,1.39-13.3.21-1.7.11-4.4-2.25-4.4-4,0-7.6,9.9-8.46,13l-5.57,20.8-1.07,1.4c-9.21.21-4.5-1.6-8.35-3.79-.65-6.51.85-13.91,1.92-20.21l.65-1.1-.43-.8c0-8.8,1.82-33.1,3.85-35.9h3.65c1.07,2,5.35.3,5.35,3.7,0,11.1-2.57,23.7-3.85,34.9-.11,1.1,0,2.5,0,3.6l.21.2c4.82-3.1,2.68-19.8,15.64-19.8,5.57,0,8.14,4.4,8.14,9.1,0,6-1.93,12.1-1.93,18.1v9.21c0,1.5,1,3.79,2.89,3.79,6.64,0,9.21-22.9,12.64-22.8l1,.5c-1.28,3-8.35,26.1-15.42,26.1h-2.36c-5.57-6.8-8.35-2.5-8.35-13.2C154.58,88.6,155.33,85.6,155.33,82.5Zm-22,9.7.65-.4-.54-.4-.54.5Zm.11-14.8c-.32,0-.43.5-.43.7l1-.3-.43-.4Zm-.43,3.9c.75,0,.86-.4.86-1C133.16,80.3,133.05,80.7,133.05,81.3Zm0,5.7h.86l-.54-.6Zm2-10,.64-.7-.86-.5-.64.6Zm-.22-9.2.43-.6-.43-.4-.43.3Zm0,3,.43-.4-.43-.4-.43.3ZM135,80l.53-.5-.53-.7-.54.6Zm0,5.6.53-.2c0-.3-.32-.4-.53-.4l-.54.3Zm-.32-11.7c.32,0,.85-.1.85-.4l-.53-.3h-.32ZM135,88.6c.43,0,.43-.6.43-.9-.32,0-.75.1-.75.5Zm-.32,2.4h.75l-.54-.4Zm0,5.6h.43v-.39A.43.43,0,0,0,134.66,96.6ZM135,61.3s-.11,0-.11.1.11.1.11.1.11,0,.11-.1S135,61.3,135,61.3Zm-.11,21.1.22-.2h-.22Zm1.07-25.6.65.6.64-.7-.54-.5-.75.5Zm.75,21.6.54-.5-.64-.5-.65.5Zm-.32,9,.64-.6-.42-.4-.65.5Zm-.32-12.8c0,.5.11.8.64.8l.54-.3c0-.7-.54-.9-1.18-.9Zm.75-20.5v-.8l-.64.4Zm.11,9.1h.1l.43-.4-.64-.6-.64.5Zm-.32,2.8.42-.2-.42-.4-.43.4Zm0,3.2L137,69a.44.44,0,0,0-.42-.4l-.43.3Zm0,12.2h.1a.58.58,0,0,0,.54-.6l-.54-.6-.53.6Zm0,11L137,92l-.42-.4-.43.4Zm-.22-20.3.64-.4-.42-.3h-.22Zm0,12.2.64-.5-.42-.2h-.22Zm2-7.5.32-.6-.54-.6-.75.6Zm-.22-30,.54-.4-.64-.4-.43.4Zm-.1,20.8c.42,0,.53-.6.53-.9-.43,0-1,.1-1,.6Zm0,6.4.85-.8-.64-.4-.64.6Zm1,6.1c0-.5-.21-1.3-.86-1.3l-.53.7Zm-1.29-24.5h.86c0-.3-.11-.8-.43-.8S137.76,55.3,137.76,55.6Zm0,3.1c.33,0,1,0,1-.4v-.1l-.43-.4h-.11Zm1,24V82h-1C137.76,82.6,138.19,82.7,138.73,82.7Zm-.43-41.9.43-.5-.32-.5-.54.6Zm0,2.8h.11l.32-.5-.43-.5-.43.6Zm-.43,5.8h.43V49h-.43Zm.22,3,.21-.2-.21-.2-.22.2Zm.1,9.2.54-.4-.43-.2-.43.3Zm-.32,2.8h.64a.44.44,0,0,0-.42-.4h-.22Zm0,21.2h.64V85h-.64Zm.32,3,.32-.3-.32-.3-.32.3Zm.11,8.61.21-.5-.42-.5-.22.5ZM138,70.4a.1.1,0,0,0,.11.1.1.1,0,0,0,0-.2A.1.1,0,0,0,138,70.4Zm.32,23.2c.21-.1.21-.2.21-.4h-.42C138.09,93.4,138.09,93.5,138.3,93.6Zm1.29-12.4.85-.4-1-.8-.54.6Zm.21-39,.86-.5-.75-.5-.75.5Zm0,3,.64-.5-.53-.5-.75.5Zm-.21,9,.64-.6-.43-.4-.64.5Zm.1,2c-.43,0-.53.8-.53,1.1l1.07-.6v-.1l-.43-.4Zm-.1,16,.64-.4-.64-.4-.43.4v.1Zm.32,3.2.53-.5-.53-.5-.75.5Zm-.11,2.8.64-.5-.75-.9-.53.8Zm-.11,14.4.75-.5-.64-.7-.64.6Zm.11-44.4.43-.4-.43-.4-.43.5Zm-.43,2.8H140v-.6h-.64Zm.54,9.2.32-.5-.54-.5-.32.5Zm-.54,2.5c0,.4.64.4,1,.4l-.42-.9h-.11l-.43.4Zm.54,3.5.42-.7-1,.3Zm-.11,3L140,69l.11-.7c-.32,0-.75.1-.75.5A.45.45,0,0,0,139.8,69.2Zm0,15.2.64-.6-.64-.4-.43.5Zm0,2.8.64-.3-.53-.5-.54.4Zm1.07-46.4.64.1v-.8c-.32,0-.85.1-.85.5Zm.54,32.8c0-.4-.22-.6-.65-.6C140.76,73.4,141,73.6,141.41,73.6Zm.32-26.9v-1l-.86.4C140.87,46.6,141.3,46.7,141.73,46.7Zm-.22,6.1.22-.5-.43-.5-.43.4v.1Zm0,2.8.43-.5a.49.49,0,0,0-.53-.5h-.11l-.43.4v.1Zm-.21,9.2.64-.5-.64-.5-.43.4v.2Zm.11,21,.53-.5-.53-.5-.54.5Zm-.33-36h.65v-.1c0-.2-.22-.4-.43-.5h-.22Zm.54,8.6a.71.71,0,0,0-.32-.6l-.22.3C141.08,58.3,141.41,58.4,141.62,58.4Zm.21,9.3-.42-.7-.33.3Zm-.64-24.5a.11.11,0,1,0,.11-.1A.1.1,0,0,0,141.19,43.2Zm.11,45.3v.1c.11-.1.21-.2.21-.3v-.1C141.41,88.3,141.3,88.4,141.3,88.5ZM142.9,57l.43-.6h-.85Zm-.32-8.8h1c0-.4-.11-.8-.65-.8h-.32Zm0,5.9c.32,0,.86-.1.86-.4l-.54-.3h-.32Zm.65-9.1.21-.7a.77.77,0,0,0-.64.3ZM143,51l.43-.2-.21-.4-.43.3Zm.11-9.5s-.11,0-.11.1.11.1.11.1.11,0,.11-.1S143.12,41.5,143.12,41.5Zm12.21,21.8c.64,0,.86-.2.86-.8C155.54,62.5,155.33,62.7,155.33,63.3Zm.32,28.7h.21v-.2h-.21Zm1.82,5.21.75-.71-.75-.7-.75.6Zm-.11-32.41.65-.5-.54-.5h-.11l-.43.4Zm0,15,.43-.4-.43-.4-.43.4Zm0,5.8.43-.3-.43-.5-.43.5Zm0-9,.65-.5-.43-.3-.43.4v.1Zm0,5.8.43-.2-.43-.2-.21.2Zm-.21,6.2H158V88h-.86Zm.11,5.1.75-.3-.33-.4Zm.21-2.8s-.11,0-.11.1.11.1.11.1.11,0,.11-.1S157.47,90.9,157.47,90.9Zm1.29,1.5c.53,0,.64-.4.64-.8h-1.07ZM159,66.2l.54-.4-.54-.6-.54.4Zm-.11,9,.65-.5-.65-.5-.43.4v.1Zm.11,6a.58.58,0,0,0,.54-.6l-.54-.2-.54.5Zm0,14.2.32-.4-.32-.4-.54.4Zm0-26.2.32-.3-.75-.4Zm.43,18.1c0-.6-.22-.8-.86-.8C158.54,87.1,158.76,87.3,159.4,87.3Zm-.86,10.91h.86L159,97.6Zm.54-26,.43-.4-.43-.4-.43.4Zm.21,11.9v-.5h-.64C158.65,84,159,84.1,159.29,84.1ZM158.86,63h.22v-.2h-.22Zm.22,15.2a.78.78,0,0,0,.21-.4.84.84,0,0,0-.43.2Zm1.5,1.8.85-.5-.53-.9-1,.7Zm.21-6.2.43-.3-.64-.5-.43.4Zm-.64,2.5c0,.4.64.4,1,.4l-.43-.9h-.1l-.43.4Zm.53,17.7.75-.6-.75-.4-.53.5Zm0,3,.54-.5-.64-.5-.43.5Zm.65-32.1c0-.8-.22-1-1.08-1C160.25,64.7,160.47,64.9,161.33,64.9Zm-1.08,2.8,1-.4-.54-.5Zm.22,23.1a.1.1,0,0,0,.11.1.1.1,0,0,0,0-.2A.1.1,0,0,0,160.47,90.8Zm.32,9,.32-.59h-.64Zm-.21-11.1c.42,0,.64-.2.64-.6C160.79,88.1,160.58,88.3,160.58,88.7Zm1.07-13.9.43.4.42-.5-.32-.5-.53.5Zm0,5.9c0,.2.21.3.43.3l.42-.4c0-.2-.1-.4-.32-.4h-.1l-.43.4Zm.53,3.5.75-.6-.53-.8-.75.9Zm-.1,3.4h.1l.32-.4-.42-.6-.43.6Zm.42,8,.22-.6-.54-.6-.53.5Zm-.21,6,.64-.81-.43-.39-.85.8Zm-.54-23.41h1.08c0-.4-.11-.8-.65-.8Zm.75-9.1v-.6l-.64.3Zm.22,3.2v-.8l-.64.1-.22.2C161.86,72.2,162.4,72.3,162.72,72.3Zm-.86,20.3a.76.76,0,0,0,.86-.8l-.54-.2h-.32Zm.64,5.7v-.5h-.64C161.86,98.21,162.18,98.3,162.5,98.3ZM162.18,66a.11.11,0,1,0,.11-.1A.1.1,0,0,0,162.18,66Zm1.61,7.8.43-.5-.43-.3-.43.4Zm0,2.8a.45.45,0,0,0,.43-.4l-.43-.2-.43.3Zm-.32-9.1a.1.1,0,0,0,.11.1.1.1,0,0,0,0-.2A.1.1,0,0,0,163.47,67.5Zm0,3,.75-.4-.32-.3Zm.11,9.1c.21,0,.32,0,.42-.2a.54.54,0,0,0-.32-.2h-.1Zm.32,23.2.32-.3-.32-.29-.32.29Z"/><path class="cls-1" d="M177.5,62.3c.21-.8,1.07-.8,1.71-.8,5.15,0,7.93,1.6,7.93,6.7,0,3.2-.21,6.5-.21,9.7l.42.4c4.5-2.8,2.9-17.6,15.43-17.6h1.5c2.46,1.3,3.32,4,5.56,5.4,0,5.9-3.21,12.4-10.49,12.4-.75,0-3.21-.1-3.21-1.1v-.1c2.57-2.8,4.92-6.1,4.92-9.9,0-1,.11-2.5-1.5-2.5-9.85,0-11.35,35.4-17.13,35.4-3,0-5.36-.7-7.07-3.2C175.36,90.1,175.79,68.2,177.5,62.3Zm0,25.6h.43v-.4h-.43Zm.43,8.6v-.1c0-.1-.11-.19-.22-.3l-.21.2Zm-.22-5.8h.22v-.2Zm1.4,7.8.75-.6-.54-.4-.75.6Zm-.22-24.1,1-.4-.54-.5Zm.43,20.9.32-.2c0-.4-.43-.5-.75-.5C178.89,94.8,179,95.3,179.32,95.3Zm-.11-6c.22,0,.33,0,.43-.2a.54.54,0,0,0-.32-.2h-.11Zm1.5-13.4.43-.3-.43-.3-.42.2A.44.44,0,0,0,180.71,75.9Zm-.1,12,.43-.7-.75.4Zm.1-15.2h.43v-.4h-.43Zm0,18h.43v-.4A.45.45,0,0,0,180.71,90.7Zm1.61,7.8.54-.5-.43-.5-.65.6Zm.43-33.1-.43-.7L182,65ZM182,89c0,.3.53.4.86.4v-.7l-.86.2Zm.32,3.5.32-.5-.32-.5L182,92Zm.32,2.9v-.6l-.64.3Zm-.53-9,.75-.3-.33-.4Zm.32-3.4c0,.1.1.2.21.3v-.1c0-.1-.11-.2-.21-.3Zm2-7-.1-.7-.22-.2a.45.45,0,0,0-.43.4C183.71,75.9,184.14,76,184.46,76Zm-.1,11.9.21-.4-.43-.2-.43.2Zm-.11,3,.32-.2a.44.44,0,0,0-.43-.4l-.43.3Zm0-18,.43-.6h-.86Zm-.32-3.2h.21v-.2h-.21Zm.1,23.9a.11.11,0,1,0,.11-.1A.1.1,0,0,0,184,93.6Zm1.61-7.1.21-.4-.32-.4-.32.3Zm1.29-4.6h.64v-.6h-.64Zm13.28-6a.57.57,0,0,0,.53-.6,1.67,1.67,0,0,0-1,.2A.44.44,0,0,0,200.21,75.9Zm.1-12,.43-.6h-.86Zm1.4-1.8h.42c0-.2-.1-.4-.32-.4h-.1Zm0,12h.21v-.2h-.21Zm1.6-7.2.75-.4v-.1c0-.3-.32-.5-.64-.5l-.64.4Zm.32-2.8.86-.6-.86-.6-.64.8Zm-.21,5.8a.57.57,0,0,0,.53-.6,1.67,1.67,0,0,0-1,.2A.45.45,0,0,0,203.42,69.9Zm0,3.2.43-.5-.54-.7-.32.6Zm0,2.8.43-.4-.32-.4-.54.5Zm1.71-7.4.22-.5-.43-.5-.43.4Zm-.1,3.2.75-.5-.75-.7-.54.6Zm0,2.8.53-.2-.64-.6-.43.4Zm.1-9a.44.44,0,0,0,.43-.4l-.43-.4-.43.4A.45.45,0,0,0,205.13,65.5Zm1.61,1.6.75-.7-.22-.5h-.53l-.75.5Zm-.21,2.8.53-.5-.53-.3-.54.5Zm0,3,.53-.3-.53-.3-.54.2C206,72.8,206.31,72.9,206.53,72.9Zm0-9.2.32-.3-.32-.3-.33.3ZM208,68.5l.43-.6-.75.2Z"/><path class="cls-1" d="M239.3,92.9c0-2.2.75-9.3-1.07-10.8h-.11c-.53,0-1,1.5-1.07,1.8-2.14,5.8-4.82,17-13.17,17-7.29,0-7.39-5.7-9.64-10.61v-4l.21-.4c1.18-8.1,2.47-17,1.82-25.2l1.4-1.2c1.82,0,8.35.2,8.35,2.8,0,9.3-1.5,18.5-1.5,27.8,0,1.9-.54,6.8,2.68,6.8,7.39,0,10.39-34.3,14.24-35.2,3.11,0,8.14-.2,8.14,4,0,9.3-1.07,18.5-1.07,27.8,0,1.8-.11,5.8,2.68,5.8,3.75,0,11.14-18.1,12.53-22l.86-.6,1.07.6c-4.07,6.8-7.39,26-18,26h-1.07C244.76,100.71,239.3,101.8,239.3,92.9Zm-22.71-6.8.86-.8-.64-.4-.64.6Zm.33,6.2.32-.6-.43-.6-.64.6Zm-.11-9.2.21-.4c0-.3-.43-.5-.75-.5C216.27,82.6,216.27,83.1,216.81,83.1Zm-.22-3.4h.22v-.2h-.22Zm.11-3.2a.11.11,0,1,0,.11-.1A.1.1,0,0,0,216.7,76.5Zm0,18a.11.11,0,1,0,.11-.1A.1.1,0,0,0,216.7,94.5Zm.86-24.7c.43,0,1.18-.2,1.18-.7l-.54-.6C217.67,68.5,217.56,69.4,217.56,69.8Zm.64-3.5.54-.3-.54-.5-.53.4Zm-.11,24.4.43-.5-.43-.3-.42.3Zm.75-27.1-.42-.9-.54.5Zm-.53,8.7c.43,0,.53-.4.53-.7l-.75.1-.21.2A.44.44,0,0,0,218.31,72.3Zm0,3.2h.11c.42,0,.42-.6.42-.9-.32,0-1,0-1,.4v.1Zm-.43,17.6h.43v-.2h-.43Zm.21-14.8h.43v-.4h-.43Zm0,17.8c.22,0,.33,0,.43-.2a.52.52,0,0,0-.32-.19h-.11Zm.22-11.8h.43c-.11-.1-.22-.2-.32-.2h-.11Zm1.5-13.2.64-.5-.75-.5-.53.3Zm.11-6.2.42-.6h-.85Zm.1-2.8.43-.4-.43-.4-.43.4Zm-.43,17.7.65-.3-.43-.2h-.22Zm.11,2.8a.11.11,0,1,0,.11-.1A.1.1,0,0,0,219.7,82.6Zm0,3.1a.11.11,0,1,0,.11-.1A.1.1,0,0,0,219.7,85.7Zm.11-12h.64a.44.44,0,0,0-.43-.4h-.21Zm0,3c.21,0,.32,0,.43-.2-.11-.1-.22-.2-.32-.2h-.11Zm0,21c.32,0,.43-.11.43-.41C219.92,97.3,219.81,97.4,219.81,97.71Zm1.6-34.21.43-.8h-1.07Zm.11,12.2.64-.8-.64-.4-.64.5Zm-.21,5.8.64-.4-.21-.6h-.11l-.75.4Zm.1-12,.54-.4c0-.5-.54-.5-1-.5Zm.33,9L222,78l-1-.4C221,78.1,221.31,78.3,221.74,78.5Zm-.43-12,.64-.6-.32-.4-.54.5Zm-.22,6.1c.32,0,.86-.1.86-.5l-.54-.4h-.32Zm0,11.7.43.4.43-.5-.32-.5-.54.5Zm.65,9.2.42-.4-.53-.6-.54.6Zm.21,2.9v-.8c-.32,0-.86.11-.86.4S221.63,96.4,222,96.4Zm-.64-6,.64-.3-.43-.2h-.21Zm0,9,.64-.31-.43-.19h-.21Zm1.82-25.31.53-.5-.75-.7-.53.7Zm-.11,6,.64-.6-.64-.6-.64.7Zm0-12.2c.54,0,.54-.5.54-.9l-1,.4Zm0,3,.43-.2a.44.44,0,0,0-.43-.4l-.43.3Zm.11,6,.53-.4-.42-.4-.65.4Zm-.32,5.8h.43v-.4h-.43Zm0,3h.43v-.4h-.43Zm0,6.2h.43v-.6h-.43Zm.1,2.8a.11.11,0,1,0,.11-.1A.1.1,0,0,0,222.91,94.7ZM223,64.9h.43v-.4H223Zm1.71,34.6.65-.5-.65-.5-.64.5Zm12.86-21.2H238c0-.2,0-.3-.21-.4C237.59,78,237.59,78.1,237.59,78.3Zm1.6-1.2.75-.7-.75-.5-.75.6ZM239,79.9c.43,0,.43-.6.43-.9-.32,0-.75.1-.75.5Zm.43-5.6.53-.6-.64-.6-.43.6Zm0-3.7a.1.1,0,0,0,.1.1.1.1,0,1,0,0-.2A.1.1,0,0,0,239.41,70.6Zm1.07-.9.75-.7-.54-.5-.75.6Zm.11,2.8L241,72l-.32-.5-.53.6Zm-.33,3.2c.54,0,1.18-.1,1.18-.7l-.75-.5Zm0,2.6H241v-.7C240.48,77.6,240.26,77.8,240.26,78.3Zm.33-12.2H241v-.4h-.42Zm.21,18.2H241v-.2h-.21Zm1.07-16.6.43.4.64-.4-.64-.6-.43.5Zm.64,3.4.65-.6-.65-.4-.64.5Zm-.1,3,.53-.6-.64-.6-.43.6Zm0,3,.75-.9-.65-.5-.64.7Zm-.11,3,.64-.7-.43-.5-.64.9Zm0,6,.64-.6-.53-.6-.54.6Zm0,6,.43-.5-.43-.3-.43.3Zm0-27.4.21-.2a.81.81,0,0,0-.42-.2A.71.71,0,0,0,242.3,64.7Zm0,18c.21,0,.32,0,.43-.2-.11-.1-.22-.2-.32-.2h-.11Zm1.61-16.2.42-.8h-1.07Zm-.54,2.6.43.4.64-.4-.53-.6-.54.5Zm.54,6.4.53-.5-.53-.3-.54.4Zm0-3.2.42-.6h-.85Zm.1-8.8a.44.44,0,0,0,.43-.4l-.43-.4-.43.4A.45.45,0,0,0,244,63.5Zm.11,18,.54-.4-.75-.6-.33.5Zm-.11,9,.43-.6-.43-.2-.43.3Zm-.21-12.2h.43c-.11-.1-.22-.2-.32-.2h-.11Zm0,6a.45.45,0,0,0,.43-.4h-.43Zm.32,2.8h.11c-.11-.1-.22-.2-.32-.2h-.11C243.91,87,244,87.1,244.12,87.1Zm.43,9.3-.43-.69-.32.19A1.9,1.9,0,0,0,244.55,96.4Zm.86-31.1.74-.8-.64-.6-.64.7Zm-.11,21,.85-.8-.53-.6-.75.8Zm.11,2.8.53-.5-.43-.5-.64.5Zm.1-21.2.43-.4-.32-.4-.54.5Zm0,9a.44.44,0,0,0,.43-.4l-.43-.2-.43.3Zm0,3a.44.44,0,0,0,.43-.4l-.43-.2-.43.3Zm.11,3,.32-.3-.75-.4Zm.21-11.8h.11l.21-.4-.64-.6-.21.5A.49.49,0,0,0,245.83,71.1Zm-.32,29.81c.22-.11.22-.2.22-.41h-.43C245.3,100.71,245.3,100.8,245.51,100.91Zm-.1-6.21a.1.1,0,0,0,.1.1.1.1,0,1,0,0-.2A.1.1,0,0,0,245.41,94.7Zm.1-21h.22v-.2Zm0,18c.22-.1.22-.2.22-.4h-.22Zm0,6.2h.22v-.19h-.22Zm1.61-31.2h.11l.53-1h-1.18C246.58,66,246.8,66.7,247.12,66.7Zm-.54,5.6h1c0-.4-.22-.6-.65-.6h-.32Zm.65-2.6.42-.5-.42-.5-.43.4v.2Zm0,5.6.21-.3-.32-.3-.32.4Zm-.22,3h.64a.44.44,0,0,0-.42-.4H247Zm0,3h.22v-.4H247Zm0,3.2h.43v-.4H247Zm0,2.8h.43v-.4H247Zm0,9c.22-.09.22-.2.22-.4H247Zm2,4.7-.43-.7-.32.2A1.66,1.66,0,0,0,249.05,101Z"/><path class="cls-1" d="M278.07,69.5c0-4.4,2.79-9.7,8.14-9.7,2.25,0,5.36,2.1,5.36,4.4,0,7.1-4.93,11.9-4.93,18,0,2.2,3.64,3,5.46,3,5.25,0,7.61-5.6,11-8.4a1.21,1.21,0,0,1,1.07,1.1c0,4.8-8.46,9.1-13,9.1-1.93,0-3.75-1-5.68-1-3.75,0-5.35,17.91-14.24,17.91-10,0-10.61-34.31-10.61-41.21V62l.43-.4h5.36c1.92,0,4.07,1.3,4.28,3.2l2.57,30.41c.11,1,.54,3,1.93,3,3.53,0,7.28-11.51,7.28-14.31s-1.28-5.1-2.46-7.5l.53.2.22-.2.1-.7-1,.4A14.75,14.75,0,0,1,278.07,69.5Zm-15-.4v-.5h-.43Zm1.28,7.7.65-.7-.75-.5-.54.5Zm0-6.2.43-.4c0-.4-.64-.5-1-.5C263.83,70,263.94,70.6,264.36,70.6Zm.22-3.2V67h-.43A.44.44,0,0,0,264.58,67.4Zm0,6V73h-.43A.44.44,0,0,0,264.58,73.4Zm-.43,8.8h.43c-.11-.1-.22-.2-.32-.2h-.11Zm0,3.3c.32,0,.86-.1.86-.5l-.54-.2h-.32Zm.11-21.2a.1.1,0,0,0,.1.1.1.1,0,1,0,0-.2A.1.1,0,0,0,264.26,64.3Zm1.5,1.7.53-.3-.64-.3-.43.3Zm-.32,3.3c.32,0,.85-.1.85-.5l-.53-.4h-.32Zm.42,14.9.43-.4-.53-.4-.32.4Zm-.32-3.3.75-.4-.43-.3Zm0,9.2c.43,0,1,0,1-.5l-.54-.4Zm.54-17.9c.21,0,.43-.1.43-.3v-.1l-.43-.4H266l-.32.4Zm0,14.8.43-.2-.54-.6-.32.4Zm0,6.2.43-.5-.32-.5-.54.5Zm.21,2.8v-.4h-.43A.45.45,0,0,0,266.29,96Zm1.07-28.2.65-.5-.65-.5-.43.6Zm.32,14.8.54-.3-.64-.9-.65.6ZM267,70.5l.75-.4-.43-.3Zm0,2.6c0,.3.11.7.54.7l.43-.5c0-.6-.43-.6-1-.6Zm0,18.4h.32c.22,0,.86,0,.86-.4l-.54-.5C267,90.6,267,91,267,91.5Zm0,2.9h.86c0-.3-.11-.8-.43-.8S267,94.1,267,94.4Zm.11-14.9c.32,0,.64-.1.64-.5h-.64Zm.43,6.3.43-.6-.54-.4-.32.5Zm.1,3,.54-.5-.75-.5-.32.5Zm-.1,8.8.64-.39-.64-.41-.43.41Zm-.22-33.3A.79.79,0,0,0,268,64l-.33-.2C267.47,63.8,267.36,64.1,267.36,64.3Zm.22,36.11h.21v-.2h-.21ZM269,84l.54-.5-.33-.5-.75.7Zm.11-15.2.43-.4-.33-.4-.53.5Zm0,6.4c.43,0,.53-.6.53-.9v-.2c-.53,0-1,.1-1,.7Zm.1,23.8.54-.4-.43-.39-.64.5Zm-.42-2.6c.53,0,1-.19,1-.8l-.43-.2C268.86,95.4,268.76,96.1,268.76,96.4ZM269.4,78l.53-.5-.53-.3-.54.4Zm-.11,9,.43-.4-.54-.4-.32.4Zm0,3.2.43-.5-.54-.5-.32.4Zm0,2.6v-.4c-.21,0-.32,0-.43.2C269,92.8,269.08,92.8,269.29,92.8Zm-.43,9.11.65-.41-.43-.29h-.22ZM269,71.6a.1.1,0,0,0,.11.1.1.1,0,1,0,0-.2A.1.1,0,0,0,269,71.6Zm1.71,26.2h.11l.43-.59-1.07-.5C270.15,97,270.25,97.8,270.68,97.8Zm.11-3.2.43-.4-.54-.4-.32.4Zm0,6,.43-.5-.43-.5-.43.5Zm-.21-15.2h.21V85h-.21Zm0,6.2h.53c0-.2-.11-.6-.43-.6h-.1Zm1.82,7.61.53-.41-.64-.59-.43.5Zm-.11,3c.43,0,.54-.6.54-.91-.33,0-1,.11-1,.5Zm1.18-1.5h.21c.32,0,1-.11,1-.5l-.43-.41C273.58,99.8,273.47,100.21,273.47,100.71Zm7-30.11.43-.4-.54-.4-.32.4ZM280,76.4v0Zm.64-9v-.6l-.42.3Zm-.42,6.1.64-.4-.43-.3h-.21Zm1.71-1.5.43-.4-.43-.4-.43.3Zm.21,3.2.43-.5-.53-.5-.54.5Zm0,3,.43-.5-.53-.5-.54.4Zm0-12.2.22-.4a.45.45,0,0,0-.43-.4l-.22.4A.45.45,0,0,0,282.14,66Zm-.43,3.1c.33,0,.86-.1.86-.5l-.53-.4h-.33Zm3.54,9.1.54-.2c2-3.5,3.74-7.3,3.74-11.3,0-1.3,0-3.7-2-3.7-3.21,0-3.21,5.3-3.21,7.3C284.29,71.8,283.86,78,285.25,78.2Z"/><path class="cls-1" d="M299.07,87.4l.21-.2c.43-3.4,1.93-24.4,4.07-25.6H305c2.14,0,6.53.4,6.53,3.2v4.8c0,5.2-1.93,10.8-1.93,16v8.6c0,3,1.93,5.9,4.29,7.8v.41a10.65,10.65,0,0,1-4.5,2l-.43.39h-2.57c-1.29-1.3-3.32-1.59-4.5-3-1.82-2.2-.21-7.3-2.78-8.8Zm1.5,2,.64-.6-.64-.6-.65.6Zm-.11,2.6.54-.2c0-.3-.33-.4-.54-.4l-.54.3Zm1.29-4,1-.5-1-.7h-.54l-.21.7Zm-.11,3,.85-.7-1.28-.9V90Zm.32,6,.53-.6-.74-.8-.54.7Zm-.11-15,.43-.6-.43-.4-.43.5Zm.11,3a.49.49,0,0,0,.53-.5v-.1l-.64-.4-.43.5Zm.21,9.2.54-.7-.75-.7-.54.6Zm-.32,5.8c.43,0,.54-.29.54-.59h-.54Zm5.25-57.4c2.68,0,6.75,3.2,6.75,5.8V50c-1.93,1.2-2.47,3-5.25,3-3.11,0-6.53-2-6.53-5.2A5.22,5.22,0,0,1,307.1,42.6Zm-3.86,46.6.54-.5-.54-.5-.53.3C302.71,88.8,302.82,89.2,303.24,89.2Zm.22-21,.75-.5-.64-.5-.65.5Zm.21,2.9-.43-.7-.32.3Zm0,3.3.32-.5-.53-.5-.54.4Zm.11,12,.64-.6-.21-.6h-.54l-.75.6Zm1.28,7.4.43-.6-1.92-2-.65.6Zm-1.49,1.8.64-.7-.75-.7-.54.6Zm.1,2.8.75-.5-.75-.5-.75.4Zm-.32,2.81.22-.3-.33-.5-.32.19Zm.32-54a.72.72,0,0,0,.75-.4.72.72,0,0,0-.75-.4l-.53.4Zm-.1,29.8.42-.3-.53-.5-.32.4ZM305,88l.53-.6L305,87l-.54.4Zm0,2.8h.1l.43-.4v-.1l-.53-.5-.54.5A.49.49,0,0,0,305,90.8Zm.1,6.2.65-.6-.75-.6-.54.5Zm-.53-51.2v.3c.53,0,1,0,1-.6L305,45C304.53,45,304.53,45.6,304.53,45.8Zm.64,18h.11l.21-.6-.21-.2-.75-.1C304.53,63.3,304.64,63.8,305.17,63.8Zm-.64,20.3c0,.3.11.9.53.9l.43-.4c0-.4-.64-.6-1-.7Zm.43,18.7.53-.59-.43-.21-.42.3Zm-.22-30.6c0,.2,0,.8.43.8l.54-.5-1-.6Zm.75,3.5-.21-.5-.43.2A.79.79,0,0,0,305.49,75.7Zm-.64,5.7h.64v-.6h-.64Zm.21,18h.22v-.2h-.22Zm1.29-13,.64-.6-.64-.4-.64.6Zm.32-39,.75-.3-.75-.7-.75.5Zm-.11,36,.65-.7-.65-.3-.64.6Zm.22,12.2.64-.7-.64-.7-.86.7Zm0,2.8.43-.5-.54-.5-.75.31Zm-.22,3,.65-.61-.75-.39-.54.39Zm.11-9,.54-.4-.65-.8-.42.5Zm-.43-12.1c.32,0,.75-.1.75-.5l-.32-.4C306.24,79.4,306.24,80,306.24,80.3Zm1.07-6c0-.3-.1-.9-.53-.9l-.43.4C306.35,74.2,307,74.3,307.31,74.3Zm.65-1.5h.1l.43-.4v-.1c0-.2-.21-.3-.43-.3l-.42.3Zm.32,24,.64-.5-.64-.5-.64.41Zm-.11,2.8.54-.3-.54-.5-.53.41Zm.11,3.4.64-.59-.54-.61-.74.5Zm-.11-27.2h.11l.43-.4v-.1c0-.2-.22-.3-.43-.3l-.43.3Zm.43,8.7-.43-.7-.32.3Zm-.32,9.1.21-.2c-.11-.1-.21-.2-.32-.2s-.21.1-.32.2ZM308,66.4a.1.1,0,0,0,.1.1.1.1,0,1,0,0-.2A.1.1,0,0,0,308,66.4Zm.1,24h.43v-.2C308.28,90.2,308.17,90.2,308.06,90.4Zm1.61-40.2c.32,0,.43-.5.43-.8h-.86C309.24,49.7,309.35,50.2,309.67,50.2Zm0,23.8c.11,0,.21-.1.32-.2l-.43-.2-.21.2C309.46,73.9,309.56,74,309.67,74Zm.11-26.8.53-.6h-.85Zm.1,20.8.33-.4h-.65Zm-.32,3H310l-.43-.2Zm.43,30.41.22-.5-.33-.5-.32.39C309.67,101,309.78,101.3,310,101.41Zm1.5-52.81.22-.2-.22-.2Z"/></g></g></svg>